<svg width="71" height="15" viewBox="0 0 71 15" fill="none" xmlns="http://www.w3.org/2000/svg">
<path d="M70.4399 0H66.9768C66.6674 0 66.4167 0.249465 66.4167 0.557196V14.0339C66.4167 14.3416 66.6674 14.5911 66.9768 14.5911H70.4399C70.7492 14.5911 71 14.3416 71 14.0339V0.557196C71 0.249465 70.7492 0 70.4399 0Z" fill="white"/>
<path d="M64.0232 0H60.5601C60.2508 0 60 0.249465 60 0.557196V14.0339C60 14.3416 60.2508 14.5911 60.5601 14.5911H64.0232C64.3326 14.5911 64.5833 14.3416 64.5833 14.0339V0.557196C64.5833 0.249465 64.3326 0 64.0232 0Z" fill="white"/>
<path fill-rule="evenodd" clip-rule="evenodd" d="M40.2564 14.5651C40.1735 14.6198 40.0685 14.5852 40.022 14.4876C40.0076 14.4574 40.0001 14.424 40 14.39V0.200622C40 0.0911916 40.077 0 40.1718 0C40.2014 0 40.231 0.00911916 40.2564 0.0255337L50.8245 6.94424C50.8784 6.98253 50.9227 7.03465 50.9533 7.09593C50.984 7.15721 51 7.22572 51 7.29533C51 7.36494 50.984 7.43345 50.9533 7.49473C50.9227 7.55601 50.8784 7.60813 50.8245 7.64642L40.2555 14.5651H40.2564Z" fill="white"/>
<circle cx="7" cy="7" r="7" fill="white"/>
<circle cx="27" cy="7" r="5" stroke="white" stroke-width="4"/>
</svg>
