<svg width="500" height="500" viewBox="0 0 500 500" fill="none" xmlns="http://www.w3.org/2000/svg">
<path d="M30 15C30 6.71572 23.2843 0 15 0C6.71572 0 0 6.71572 0 15C0 22.4868 5.48525 28.6925 12.6562 29.8178V19.3359H8.84766V15H12.6562V11.6953C12.6562 7.93594 14.8957 5.85938 18.322 5.85938C19.9626 5.85938 21.6797 6.15234 21.6797 6.15234V9.84375H19.7883C17.925 9.84375 17.3438 11.0001 17.3438 12.1875V15H21.5039L20.8389 19.3359H17.3438V29.8178C24.5147 28.6925 30 22.4868 30 15Z" fill="black"/>
<path d="M66 3.70117C70.0078 3.70117 70.4824 3.71875 72.0586 3.78906C73.5234 3.85352 74.3145 4.09961 74.8418 4.30469C75.5391 4.57422 76.043 4.90234 76.5645 5.42383C77.0918 5.95117 77.4141 6.44922 77.6836 7.14648C77.8887 7.67383 78.1348 8.4707 78.1992 9.92969C78.2695 11.5117 78.2871 11.9863 78.2871 15.9883C78.2871 19.9961 78.2695 20.4707 78.1992 22.0469C78.1348 23.5117 77.8887 24.3027 77.6836 24.8301C77.4141 25.5273 77.0859 26.0313 76.5645 26.5527C76.0371 27.0801 75.5391 27.4023 74.8418 27.6719C74.3145 27.877 73.5176 28.123 72.0586 28.1875C70.4766 28.2578 70.002 28.2754 66 28.2754C61.9922 28.2754 61.5176 28.2578 59.9414 28.1875C58.4766 28.123 57.6855 27.877 57.1582 27.6719C56.4609 27.4023 55.957 27.0742 55.4355 26.5527C54.9082 26.0254 54.5859 25.5273 54.3164 24.8301C54.1113 24.3027 53.8652 23.5059 53.8008 22.0469C53.7305 20.4648 53.7129 19.9902 53.7129 15.9883C53.7129 11.9805 53.7305 11.5059 53.8008 9.92969C53.8652 8.46484 54.1113 7.67383 54.3164 7.14648C54.5859 6.44922 54.9141 5.94531 55.4355 5.42383C55.9629 4.89648 56.4609 4.57422 57.1582 4.30469C57.6855 4.09961 58.4824 3.85352 59.9414 3.78906C61.5176 3.71875 61.9922 3.70117 66 3.70117ZM66 1C61.9277 1 61.418 1.01758 59.8184 1.08789C58.2246 1.1582 57.1289 1.41602 56.1797 1.78516C55.1895 2.17187 54.3516 2.68164 53.5195 3.51953C52.6816 4.35156 52.1719 5.18945 51.7852 6.17383C51.416 7.12891 51.1582 8.21875 51.0879 9.8125C51.0176 11.418 51 11.9277 51 16C51 20.0723 51.0176 20.582 51.0879 22.1816C51.1582 23.7754 51.416 24.8711 51.7852 25.8203C52.1719 26.8105 52.6816 27.6484 53.5195 28.4805C54.3516 29.3125 55.1895 29.8281 56.1738 30.209C57.1289 30.5781 58.2188 30.8359 59.8125 30.9062C61.4121 30.9766 61.9219 30.9941 65.9941 30.9941C70.0664 30.9941 70.5762 30.9766 72.1758 30.9062C73.7695 30.8359 74.8652 30.5781 75.8145 30.209C76.7988 29.8281 77.6367 29.3125 78.4688 28.4805C79.3008 27.6484 79.8164 26.8105 80.1973 25.8262C80.5664 24.8711 80.8242 23.7813 80.8945 22.1875C80.9648 20.5879 80.9824 20.0781 80.9824 16.0059C80.9824 11.9336 80.9648 11.4238 80.8945 9.82422C80.8242 8.23047 80.5664 7.13477 80.1973 6.18555C79.8281 5.18945 79.3184 4.35156 78.4805 3.51953C77.6484 2.6875 76.8105 2.17188 75.8262 1.79102C74.8711 1.42187 73.7813 1.16406 72.1875 1.09375C70.582 1.01758 70.0723 1 66 1Z" fill="black"/>
<path d="M66 8.29492C61.7461 8.29492 58.2949 11.7461 58.2949 16C58.2949 20.2539 61.7461 23.7051 66 23.7051C70.2539 23.7051 73.7051 20.2539 73.7051 16C73.7051 11.7461 70.2539 8.29492 66 8.29492ZM66 20.998C63.2402 20.998 61.002 18.7598 61.002 16C61.002 13.2402 63.2402 11.002 66 11.002C68.7598 11.002 70.998 13.2402 70.998 16C70.998 18.7598 68.7598 20.998 66 20.998Z" fill="black"/>
<path d="M75.8086 7.99018C75.8086 8.98627 75 9.78901 74.0098 9.78901C73.0137 9.78901 72.2109 8.98041 72.2109 7.99018C72.2109 6.99408 73.0195 6.19135 74.0098 6.19135C75 6.19135 75.8086 6.99994 75.8086 7.99018Z" fill="black"/>
<g clip-path="url(#clip0_9_6)">
<path fill-rule="evenodd" clip-rule="evenodd" d="M116 0.625C112.439 0.626848 108.995 1.88807 106.284 4.18315C103.572 6.47823 101.77 9.65751 101.199 13.1525C100.629 16.6475 101.327 20.2303 103.17 23.2602C105.012 26.2902 107.879 28.5697 111.256 29.6912C112.001 29.8295 112.282 29.3677 112.282 28.975C112.282 28.5823 112.267 27.4438 112.262 26.199C108.089 27.1005 107.207 24.4381 107.207 24.4381C106.527 22.7093 105.543 22.2549 105.543 22.2549C104.182 21.3312 105.645 21.3485 105.645 21.3485C107.153 21.4547 107.945 22.8871 107.945 22.8871C109.281 25.1667 111.455 24.5073 112.309 24.122C112.443 23.1563 112.833 22.4994 113.263 22.1264C109.93 21.751 106.428 20.4717 106.428 14.7568C106.407 13.2746 106.96 11.8413 107.972 10.7534C107.818 10.378 107.304 8.86154 108.119 6.80179C108.119 6.80179 109.378 6.40169 112.245 8.33055C114.703 7.66203 117.297 7.66203 119.756 8.33055C122.62 6.40169 123.877 6.80179 123.877 6.80179C124.694 8.8566 124.18 10.373 124.026 10.7534C125.041 11.8415 125.596 13.2773 125.573 14.7617C125.573 20.489 122.063 21.751 118.725 22.119C119.262 22.5833 119.741 23.4897 119.741 24.8827C119.741 26.8782 119.724 28.4835 119.724 28.975C119.724 29.3726 119.994 29.8369 120.754 29.6912C124.132 28.5696 126.999 26.2896 128.841 23.2592C130.684 20.2287 131.382 16.6454 130.811 13.1501C130.24 9.65475 128.437 6.47544 125.724 4.18076C123.012 1.88607 119.567 0.625676 116.005 0.625H116Z" fill="black"/>
<path d="M106.681 22.04C106.648 22.1141 106.529 22.1363 106.432 22.0845C106.335 22.0326 106.263 21.9363 106.298 21.8597C106.333 21.7832 106.45 21.7634 106.546 21.8153C106.643 21.8671 106.718 21.9659 106.681 22.04Z" fill="black"/>
<path d="M107.289 22.7142C107.238 22.74 107.179 22.7472 107.123 22.7346C107.066 22.722 107.016 22.6903 106.981 22.6451C106.884 22.5414 106.864 22.3981 106.939 22.3339C107.013 22.2697 107.148 22.2993 107.244 22.4031C107.341 22.5068 107.364 22.65 107.289 22.7142Z" fill="black"/>
<path d="M107.88 23.5712C107.788 23.6354 107.632 23.5712 107.545 23.4428C107.521 23.4198 107.502 23.3921 107.489 23.3616C107.476 23.331 107.469 23.2982 107.469 23.265C107.469 23.2318 107.476 23.1989 107.489 23.1684C107.502 23.1378 107.521 23.1102 107.545 23.0872C107.637 23.0254 107.793 23.0872 107.88 23.2131C107.967 23.3391 107.97 23.507 107.88 23.5712V23.5712Z" fill="black"/>
<path d="M108.683 24.4011C108.601 24.4924 108.434 24.4677 108.298 24.3443C108.161 24.2208 108.129 24.0528 108.211 23.9639C108.293 23.875 108.459 23.8997 108.601 24.0207C108.742 24.1417 108.77 24.3121 108.683 24.4011V24.4011Z" fill="black"/>
<path d="M109.808 24.8851C109.77 25.0012 109.602 25.0531 109.433 25.0037C109.264 24.9543 109.152 24.816 109.184 24.6974C109.217 24.5789 109.388 24.5245 109.559 24.5789C109.731 24.6332 109.84 24.7641 109.808 24.8851Z" fill="black"/>
<path d="M111.035 24.9691C111.035 25.0901 110.896 25.1938 110.717 25.1963C110.538 25.1988 110.391 25.1 110.391 24.979C110.391 24.858 110.531 24.7542 110.709 24.7518C110.888 24.7493 111.035 24.8456 111.035 24.9691Z" fill="black"/>
<path d="M112.177 24.7789C112.2 24.8999 112.076 25.0259 111.897 25.0555C111.718 25.0852 111.561 25.0135 111.539 24.895C111.517 24.7765 111.646 24.648 111.82 24.6159C111.994 24.5838 112.155 24.6579 112.177 24.7789Z" fill="black"/>
</g>
<path d="M166 0C157.715 0 151 6.71484 151 15C151 21.3574 154.955 26.7832 160.533 28.9687C160.404 27.7793 160.281 25.9629 160.586 24.668C160.861 23.4961 162.344 17.2148 162.344 17.2148C162.344 17.2148 161.893 16.3184 161.893 14.9883C161.893 12.9023 163.1 11.3438 164.605 11.3438C165.883 11.3438 166.504 12.3047 166.504 13.459C166.504 14.748 165.684 16.6699 165.262 18.4512C164.91 19.9453 166.012 21.1641 167.482 21.1641C170.148 21.1641 172.199 18.3516 172.199 14.2969C172.199 10.7051 169.621 8.19141 165.936 8.19141C161.67 8.19141 159.162 11.3906 159.162 14.7012C159.162 15.9902 159.66 17.373 160.281 18.123C160.404 18.2695 160.422 18.4043 160.387 18.5508C160.275 19.0254 160.018 20.0449 159.971 20.25C159.906 20.5254 159.754 20.584 159.467 20.4492C157.592 19.5762 156.42 16.8398 156.42 14.6367C156.42 9.90234 159.859 5.56055 166.328 5.56055C171.531 5.56055 175.574 9.26953 175.574 14.2266C175.574 19.3945 172.316 23.5547 167.793 23.5547C166.275 23.5547 164.846 22.7637 164.354 21.832C164.354 21.832 163.604 24.6973 163.422 25.4004C163.082 26.7012 162.168 28.3359 161.559 29.332C162.965 29.7656 164.453 30 166 30C174.285 30 181 23.2852 181 15C181 6.71484 174.285 0 166 0Z" fill="black"/>
<defs>
<clipPath id="clip0_9_6">
<rect width="30" height="30" fill="white" transform="translate(101)"/>
</clipPath>
</defs>
</svg>
